<?xml version="1.0" encoding="utf-8"?>
<!-- Generator: Adobe Illustrator 16.0.0, SVG Export Plug-In . SVG Version: 6.00 Build 0)  -->
<!DOCTYPE svg PUBLIC "-//W3C//DTD SVG 1.1//EN" "http://www.w3.org/Graphics/SVG/1.1/DTD/svg11.dtd">
<svg version="1.1" id="Capa_1" xmlns="http://www.w3.org/2000/svg" xmlns:xlink="http://www.w3.org/1999/xlink" x="0px" y="0px"
	 width="80px" height="80px" viewBox="380.945 257.64 80 80" enable-background="new 380.945 257.64 80 80" xml:space="preserve">
<g>
	<path fill="#E7ECED" d="M409.096,320.254l-11.879,6.479c-0.698,0.383-1.324,0.851-1.906,1.358
		c6.926,5.84,15.867,9.363,25.636,9.363c9.696,0,18.581-3.472,25.486-9.229c-0.636-0.54-1.326-1.023-2.093-1.405l-12.722-6.359
		c-1.645-0.822-2.683-2.5-2.683-4.339v-4.991c0.357-0.407,0.766-0.93,1.206-1.547c1.732-2.451,3.046-5.144,3.953-7.97
		c1.631-0.503,2.833-2.011,2.833-3.801v-5.328c0-1.171-0.52-2.219-1.332-2.952v-7.701c0,0,1.585-11.985-14.648-11.985
		c-16.231,0-14.649,11.985-14.649,11.985v7.701c-0.81,0.733-1.331,1.781-1.331,2.952v5.328c0,1.402,0.737,2.638,1.842,3.352
		c1.331,5.795,4.817,9.966,4.817,9.966v4.868C411.625,317.77,410.654,319.406,409.096,320.254z"/>
	<g>
		<path fill="#556080" d="M421.626,257.832c-21.986-0.376-40.114,17.144-40.49,39.128c-0.213,12.465,5.343,23.67,14.189,31.12
			c0.579-0.506,1.199-0.97,1.889-1.344l11.88-6.48c1.557-0.85,2.529-2.483,2.529-4.26v-4.866c0,0-3.487-4.171-4.818-9.966
			c-1.103-0.716-1.842-1.948-1.842-3.353v-5.327c0-1.172,0.522-2.219,1.332-2.952v-7.702c0,0-1.582-11.985,14.649-11.985
			c16.229,0,14.647,11.985,14.647,11.985v7.702c0.813,0.733,1.332,1.78,1.332,2.952v5.327c0,1.79-1.202,3.297-2.832,3.802
			c-0.91,2.825-2.222,5.519-3.954,7.967c-0.44,0.618-0.849,1.144-1.206,1.55v4.991c0,1.836,1.038,3.518,2.682,4.34l12.724,6.357
			c0.761,0.382,1.452,0.865,2.087,1.4c8.579-7.154,14.122-17.852,14.328-29.898C461.131,276.335,443.614,258.206,421.626,257.832z"
			/>
	</g>
</g>
</svg>
